<svg width="500" height="500" xmlns="http://www.w3.org/2000/svg">

 <g>
  <title>Layer 1</title>
  <rect id="svg_5" height="607" width="663" y="-34" x="-60" stroke="#000" fill="#ffd9e2"/>
  <g stroke="null">
   <path d="m119.78444,143.16459c0.11656,1.91205 -0.53054,3.18387 -2.80906,3.34143c-1.6221,0.11219 -2.54328,1.03358 -2.44518,2.62779c0.10305,1.67496 1.42508,2.11774 2.87671,2.31725c4.0939,0.56267 8.0905,-0.00456 11.98235,-1.16837c7.29126,-2.18035 14.89214,-3.0969 22.23888,-5.03046c2.05032,-0.5396 4.7959,-0.58306 5.28942,-3.01558c0.45311,-2.23322 -1.28083,-3.83701 -3.26363,-5.01267c-0.33551,-0.1989 -0.48119,-0.6869 -0.94738,-1.39481c4.71844,-1.85535 9.53209,-2.19578 14.26141,-2.72721c19.58353,-2.20064 39.27088,-3.5615 58.75084,-6.60577c2.57759,-0.40281 5.05381,-1.47622 7.94736,-0.83846c-7.10148,4.43247 -14.24986,8.73011 -22.21438,12.05754c2.61629,-0.31262 5.24287,-0.56347 7.84598,-0.95522c2.61745,-0.3939 5.20201,-0.98324 7.81736,-1.39225c33.5526,-5.24712 63.83623,-18.76206 93.72151,-33.33278c8.64355,-4.21419 17.57783,-7.82017 26.90464,-10.51625c5.23529,-1.51338 10.0813,-1.19772 15.02543,1.22759c11.07335,5.4319 18.44075,14.03776 23.98902,24.3228c0.32196,0.59681 0.50962,1.22914 0.12468,2.10062c-1.81322,0.3254 -3.91738,1.24051 -3.68053,-2.09668c0.05804,-0.81698 -0.25871,-1.65717 -0.98273,-2.00737c-5.56694,-2.69275 -10.38737,-7.44869 -17.79346,-4.32978c-5.12391,2.15783 -10.84001,2.99453 -15.94262,5.60911c1.13833,2.07772 2.79756,2.52964 4.95192,2.04283c0.88797,-0.20063 1.83219,-0.22794 2.75206,-0.23893c2.04549,-0.02446 3.26261,0.97104 3.57241,2.88223c0.33678,2.07798 -1.22153,2.64071 -2.8658,3.03092c-5.94021,1.40968 -11.89036,2.78136 -17.83277,4.18267c-14.13923,3.33428 -27.79023,8.26262 -41.87605,11.73552c-20.22402,4.98626 -40.48405,9.91898 -61.52902,10.75184c-3.06609,0.12133 -6.11872,0.54962 -9.2049,1.13323c4.58767,1.01725 8.86239,3.01912 13.92696,2.04332c4.15397,-0.80035 8.50018,-0.73454 12.76638,-0.96792c13.54607,-0.74108 26.82457,-2.89149 39.79019,-6.72001c1.64558,-0.4859 3.27071,-1.03414 4.90968,-1.54067c0.07867,-0.02431 0.19987,0.07574 0.82311,0.33478c-3.22293,3.60117 -7.66899,5.28028 -12.49081,7.76778c3.42757,0.96266 5.73927,0.12078 7.99421,-0.281c17.61167,-3.1379 34.68305,-8.35585 52.08109,-12.32842c14.87889,-3.39737 29.85381,-5.73797 45.23525,-5.16274c3.95771,0.14799 7.8079,0.72526 11.63381,1.55591c2.1816,0.47362 3.96114,1.5678 5.49162,3.22461c7.92537,8.57912 11.6946,18.79346 13.30524,29.89212c0.36021,2.48228 0.72521,4.96394 1.23284,8.43684c-5.62883,-2.32491 -10.61575,-4.38466 -15.77325,-6.51487c1.07699,-1.20931 2.18427,-0.69935 3.13574,-0.84125c1.40234,-0.20917 3.4607,0.40708 3.69569,-1.51994c0.19732,-1.61816 -0.66607,-3.33752 -2.48166,-4.00214c-2.79557,-1.02331 -5.62752,-2.03491 -8.53386,-2.69388c-16.72976,-3.79344 -33.46495,-2.92373 -50.17209,0.20969c-10.65248,1.99787 -21.23183,4.28383 -31.55884,7.52009c-0.65696,0.20586 -1.3343,0.37685 -1.95522,0.65779c-1.42368,0.64425 -2.76565,1.52894 -2.30877,3.2331c0.48751,1.81829 2.22761,1.32991 3.49387,1.11378c6.13943,-1.04785 12.23842,-2.27652 18.15337,-4.21915c0.93033,-0.30554 1.8602,-0.90853 3.35912,-0.31935c-4.42721,4.371 -10.54267,6.29043 -15.64176,10.99614c7.70843,-1.23582 14.47212,-2.30309 21.2292,-3.40679c17.82328,-2.91126 35.72615,-3.52549 53.227,1.12278c22.08858,5.86681 31.92493,18.19086 32.7025,38.84647c0.3714,9.8655 -1.35781,19.45717 -5.12412,28.68239c-0.34758,0.85154 -0.25189,2.03416 -1.51905,2.36096c-0.75329,-0.28046 -0.66798,-0.90309 -0.57109,-1.38605c2.78277,-13.87253 -7.32691,-28.8385 -20.86137,-35.18748c-11.66338,-5.4713 -24.11484,-6.50203 -36.82869,-5.94839c-2.55503,0.11126 -4.96221,1.06413 -6.84499,2.87276c-0.78731,0.75631 -2.00283,1.37043 -1.49261,2.70757c0.55809,1.46278 1.90095,1.79738 3.37589,1.79963c4.85716,0.00749 9.69855,0.22088 14.54634,0.57607c5.19309,0.3805 10.28549,1.29686 15.41486,2.03609c2.61218,0.37645 3.82701,1.69418 4.39018,4.17554c2.99599,13.19983 3.61588,26.48598 2.34551,39.9181c-1.91832,20.28335 -7.86013,39.4325 -18.09004,57.28093c-13.79279,24.06473 -32.61867,43.80362 -56.8145,58.91863c-23.71993,14.81772 -49.84259,23.00846 -77.91823,25.22371c-16.9441,1.33688 -33.93952,0.54546 -50.58062,-3.60051c-2.77089,-0.69038 -3.99889,-1.67904 -3.98935,-4.61937c0.09991,-30.77581 0.08837,-61.55222 -0.01275,-92.32806c-0.01036,-3.15585 1.30683,-3.88367 4.34054,-3.8664c16.65584,0.09492 33.31344,0.13099 49.96894,0.00696c17.16128,-0.12781 33.87558,-2.74267 49.34399,-10.09566c16.47092,-7.82957 27.7247,-20.12804 31.80564,-37.42151c4.21667,-17.86865 -0.50632,-33.70965 -13.68112,-47.17009c-13.18772,-13.47356 -29.97561,-20.96952 -48.14135,-26.22629c-15.2987,-4.42709 -31.01468,-6.68395 -46.82386,-8.60274c-23.37368,-2.83695 -46.8424,-2.05819 -70.29933,-2.04869c-3.26154,0.00133 -4.15412,1.18435 -4.14969,4.08951c0.05145,33.74342 0.01608,67.48699 -0.005,101.23051c-0.0308,49.3508 -0.06884,98.7016 -0.10324,148.0524c-0.0025,3.58932 -0.00034,7.17868 -0.00034,10.59938c-1.48493,0.3532 -1.94111,-0.21814 -2.38454,-0.68945c-5.00885,-5.3242 -9.98511,-10.67606 -15.00348,-15.99209c-1.54914,-1.64101 -2.18918,-3.47262 -2.18359,-5.6989c0.04215,-16.79659 -0.01703,-33.59339 -0.01468,-50.39015c0.00845,-60.22298 0.03132,-120.44601 0.03781,-180.66901c0.00038,-3.52709 -1.90218,-5.10501 -7.30939,-6.16949c-1.09597,1.21684 -0.64216,2.70964 -0.64311,4.0741c-0.04768,68.36721 -0.06573,136.73446 -0.09709,205.10169c-0.00066,1.426 0.01095,2.87157 -0.22258,4.27197c-0.20116,1.20625 0.01752,2.96729 -1.91738,3.04205c-1.79543,0.06928 -3.43665,-0.64598 -4.253,-2.32901c-0.89515,-1.84546 -0.81597,-3.84848 -0.81616,-5.83226c-0.00423,-46.49412 -0.01733,-92.9882 -0.0264,-139.48231c-0.00428,-21.87315 -0.15676,-43.74807 0.12256,-65.61797c0.05672,-4.44181 -1.16974,-7.31406 -5.38893,-9.05784c-0.92957,-0.38418 -1.56141,-1.3337 -2.8335,-1.36107c-1.86174,1.02731 -1.23821,2.85255 -1.23924,4.38195c-0.02678,39.45941 -0.01629,78.91886 -0.00155,118.37829c0.00822,21.9826 0.03762,43.96525 0.04681,65.94785c0.00036,0.86351 -0.10966,1.72707 -0.17193,2.64525c-0.46777,0 -0.92088,0.13316 -1.09176,-0.01932c-5.40549,-4.82274 -10.24704,-10.14574 -14.95442,-15.56917c-1.53623,-1.7699 -1.46457,-4.23296 -1.28851,-6.34765c0.83214,-9.99519 -1.70364,-19.00102 -6.2187,-28.13655c-6.91671,-13.9949 -9.69645,-29.16627 -10.85925,-44.64016c-1.48342,-19.74073 0.58902,-39.00968 7.03738,-57.81586c1.35527,-3.95256 3.25366,-7.74499 5.04345,-11.55105c0.7197,-1.53046 1.2976,-3.20859 3.73329,-3.40177c1.75988,-0.13961 1.13062,-1.93723 1.14074,-3.00695c0.08532,-9.01237 0.66609,-18.06796 -0.04914,-27.02785c-0.91529,-11.46678 3.60207,-19.73263 13.10037,-26.54635c11.90578,-8.54072 24.80276,-15.29465 38.24917,-21.2322c23.27731,-10.27862 48.0451,-16.26265 72.6555,-22.69071c22.92066,-5.98671 45.29502,-13.21763 65.39674,-25.68009c0.77443,-0.48016 1.66198,-0.86703 2.28073,-1.49092c3.92686,-3.95944 8.51162,-3.62911 13.4244,-2.13972c3.91691,1.18747 7.89897,2.16795 11.75628,4.23213c-0.50064,0.61278 -0.69039,1.04968 -1.03111,1.23272c-17.70186,9.50962 -34.96535,19.80376 -54.03071,26.85323c-16.63699,6.15159 -33.82521,10.385 -51.24474,13.94789c-23.31424,4.76862 -46.36206,10.38103 -67.26649,21.85956c-6.1086,3.35421 -12.21308,6.77367 -16.74358,12.1073c-2.15709,2.53946 -3.70302,5.25221 -1.90999,8.79199c3.8852,-1.0588 7.19672,-3.03144 11.29921,-3.41548c0.26869,-0.02182 0.25484,-0.03436 0.25484,-0.03436z" fill="#000000"/>
   <path d="m229.84503,206.59113c6.99462,0.72321 13.53044,1.93892 19.73956,4.49609c15.35907,6.32553 21.74434,22.48422 13.76093,35.401c-4.75159,7.68791 -12.73685,10.64969 -21.48228,11.5909c-15.06821,1.62177 -30.22767,0.40924 -45.34196,0.76026c-3.11606,0.07234 -3.26935,-1.75847 -3.27084,-3.85943c-0.00595,-8.45132 0.00452,-16.90265 0.00068,-25.35396c-0.00305,-6.69524 0.08813,-13.39285 -0.07924,-20.08453c-0.06867,-2.74535 1.05058,-3.70261 3.81916,-3.70689c10.85401,-0.01675 21.70274,0.08864 32.85399,0.75655z" fill="#000000"/>
   <path d="m282.21215,100.3525c-15.38267,7.15418 -30.52002,14.22641 -46.93939,18.35691c-12.30213,3.09474 -24.78459,5.08055 -37.44962,6.30041c-24.56242,2.36577 -49.15344,4.69592 -72.87658,11.77145c-3.49354,1.04195 -6.88905,2.38058 -10.71988,3.7181c0.45695,-1.69843 1.81201,-1.96445 2.74056,-2.58461c16.23354,-10.84139 34.72475,-16.68972 53.50751,-21.95489c17.49937,-4.90545 35.46058,-8.0016 53.06291,-12.50554c20.30459,-5.19537 39.49161,-12.8829 57.89835,-22.47692c9.71249,-5.06236 19.35956,-10.32271 30.27985,-12.8522c2.75477,-0.6381 5.43732,-0.67889 8.18997,0.10948c7.83945,2.24525 15.04097,5.55906 21.19599,10.79712c2.07243,1.76364 2.04071,2.97005 -0.60951,4.02733c-2.12898,0.84932 -4.24336,1.75144 -6.28559,2.77217c-2.29666,1.14787 -4.2201,2.35024 -6.31329,-0.65135c-1.08059,-1.54959 -3.48125,-1.19215 -5.50361,-0.63479c-13.92662,3.8382 -27.19241,9.17817 -40.17768,15.80733z" fill="#000000"/>
   <path d="m303.23653,101.84625c-12.24777,6.44346 -24.41511,12.46709 -37.93186,15.78486c11.59009,-7.30627 23.11648,-14.65292 34.35762,-22.6849c1.64495,2.75157 -1.86507,3.44937 -1.32185,5.56791c9.97005,-2.78017 17.57804,-10.54646 28.21801,-11.64291c-7.15454,5.20986 -15.53551,8.37102 -23.32193,12.97504z" fill="#000000"/>
   <path d="m372.47644,118.37458c2.82984,-0.09681 5.41503,-0.73071 8.77025,-0.08303c-3.05949,1.79799 -5.64247,2.71319 -8.52636,2.46522c-2.39342,-0.20581 -2.28603,-1.14943 -0.24388,-2.38219z" fill="#000000"/>
   <path d="m366.29197,165.61234c2.44366,0.085 4.3998,-2.02498 6.76395,-0.38196c-4.13084,0.53 -7.54292,3.68217 -12.74783,2.84461c1.93293,-1.76933 3.93995,-1.85941 5.98388,-2.46265z" fill="#000000"/>
   <path d="m119.80217,143.18391c2.81192,-1.5196 5.24274,-2.16314 8.20009,-1.99334c-2.16116,2.93811 -5.14566,1.59139 -7.90467,1.96997c-0.31314,0.00404 -0.29929,0.01658 -0.29542,0.02337z" fill="#000000"/>
  </g>
  <rect id="svg_3" height="1" width="0" y="118" x="-192" stroke="#000" fill="#fff"/>
 </g>
</svg>