<svg xmlns="http://www.w3.org/2000/svg" viewBox="0 0 1024 1024" xml:space="preserve"><path d="M350.966 343.969c.168 2.899-.765 4.827-4.048 5.066-2.337.17-3.664 1.567-3.522 3.984.148 2.54 2.053 3.211 4.144 3.514 5.899.853 11.657-.007 17.264-1.772 10.505-3.306 21.456-4.695 32.041-7.627 2.954-.818 6.91-.884 7.621-4.572.653-3.386-1.845-5.818-4.702-7.6-.484-.302-.693-1.042-1.365-2.115 6.798-2.813 13.733-3.33 20.547-4.135 28.216-3.337 56.58-5.4 84.647-10.016 3.714-.61 7.281-2.238 11.45-1.271-10.231 6.72-20.53 13.236-32.006 18.281 3.77-.474 7.554-.854 11.305-1.448 3.77-.597 7.494-1.49 11.263-2.11 48.341-7.957 91.973-28.448 135.03-50.54 12.454-6.39 25.326-11.857 38.764-15.945 7.543-2.294 14.525-1.816 21.648 1.861 15.955 8.236 26.57 21.285 34.563 36.879.464.905.734 1.863.18 3.185-2.613.493-5.644 1.88-5.303-3.18.084-1.238-.373-2.512-1.416-3.043-8.02-4.083-14.966-11.294-25.636-6.565-7.383 3.272-15.618 4.54-22.97 8.505 1.64 3.15 4.03 3.835 7.135 3.097 1.28-.304 2.64-.345 3.965-.362 2.947-.037 4.7 1.472 5.147 4.37.485 3.15-1.76 4.004-4.13 4.595-8.558 2.138-17.13 4.218-25.692 6.342-20.371 5.056-40.04 12.528-60.334 17.794-29.138 7.56-58.328 15.039-88.65 16.302-4.417.184-8.815.833-13.261 1.718 6.61 1.542 12.768 4.577 20.065 3.098 5.985-1.214 12.247-1.114 18.394-1.468 19.517-1.123 38.648-4.384 57.328-10.189 2.371-.736 4.713-1.567 7.074-2.335.113-.037.288.114 1.186.507-4.644 5.46-11.05 8.006-17.996 11.778 4.938 1.46 8.269.183 11.517-.426 25.375-4.758 49.97-12.67 75.037-18.693 21.437-5.15 43.013-8.7 65.174-7.828 5.702.225 11.25 1.1 16.762 2.36 3.143.718 5.707 2.377 7.912 4.889 11.418 13.007 16.849 28.494 19.17 45.322.519 3.764 1.044 7.527 1.776 12.792l-22.726-9.878c1.552-1.833 3.147-1.06 4.518-1.275 2.02-.317 4.986.617 5.325-2.305.284-2.453-.96-5.06-3.576-6.068-4.028-1.551-8.108-3.085-12.295-4.084-24.104-5.752-48.215-4.433-72.287.318-15.347 3.029-30.59 6.495-45.469 11.402-.946.312-1.922.571-2.817.997-2.05.977-3.984 2.318-3.326 4.902.702 2.757 3.21 2.016 5.034 1.689 8.845-1.589 17.632-3.452 26.155-6.397 1.34-.464 2.68-1.378 4.84-.485-6.38 6.628-15.19 9.538-22.537 16.673 11.106-1.874 20.851-3.492 30.587-5.166 25.679-4.414 51.473-5.345 76.687 1.703 31.825 8.895 45.997 27.58 47.117 58.899.535 14.958-1.956 29.5-7.382 43.488-.501 1.291-.363 3.084-2.189 3.58-1.085-.425-.962-1.37-.823-2.102 4.01-21.033-10.556-43.725-30.056-53.351-16.805-8.296-34.744-9.858-53.062-9.019-3.681.169-7.15 1.613-9.862 4.356-1.134 1.146-2.886 2.078-2.15 4.105.804 2.218 2.738 2.725 4.863 2.729 6.998.01 13.974.334 20.958.873 7.482.577 14.82 1.966 22.21 3.087 3.763.57 5.513 2.569 6.325 6.331 4.316 20.014 5.21 40.158 3.38 60.524-2.765 30.754-11.325 59.788-26.064 86.85-19.873 36.487-46.996 66.415-81.857 89.332-34.175 22.467-71.812 34.886-112.262 38.244-24.413 2.027-48.9.827-72.876-5.459-3.992-1.047-5.761-2.546-5.747-7.004.144-46.662.127-93.325-.019-139.988-.015-4.785 1.883-5.888 6.254-5.862 23.997.144 47.997.199 71.994.01 24.725-.193 48.807-4.158 71.093-15.306 23.731-11.872 39.945-30.519 45.825-56.739 6.075-27.093-.73-51.11-19.711-71.52-19-20.428-43.188-31.793-69.361-39.764-22.042-6.712-44.685-10.134-67.463-13.043-33.676-4.302-67.489-3.12-101.285-3.107-4.699.002-5.985 1.796-5.979 6.201.075 51.162.024 102.324-.007 153.486-.044 74.826-.099 149.652-.149 224.477-.003 5.443 0 10.885 0 16.071-2.14.536-2.797-.33-3.436-1.045-7.216-8.073-14.386-16.187-21.616-24.247-2.232-2.489-3.154-5.266-3.146-8.641.06-25.467-.025-50.935-.021-76.402.012-91.31.045-182.62.054-273.93 0-5.348-2.74-7.74-10.531-9.355-1.58 1.845-.925 4.109-.927 6.177-.068 103.659-.094 207.317-.14 310.976 0 2.162.016 4.354-.32 6.477-.29 1.83.025 4.5-2.763 4.613-2.587.105-4.951-.98-6.127-3.532-1.29-2.798-1.176-5.835-1.176-8.843-.006-70.494-.025-140.988-.038-211.483-.006-33.164-.226-66.33.176-99.49.082-6.735-1.685-11.09-7.764-13.734-1.34-.582-2.25-2.022-4.082-2.063-2.683 1.557-1.784 4.325-1.786 6.644-.038 59.828-.023 119.657-.002 179.485.012 33.33.054 66.66.067 99.99.001 1.31-.158 2.619-.247 4.011-.674 0-1.327.202-1.573-.03-7.788-7.311-14.764-15.382-21.546-23.605-2.213-2.684-2.11-6.418-1.857-9.625 1.2-15.154-2.454-28.809-8.96-42.66-9.965-21.22-13.97-44.222-15.645-67.684-2.137-29.93.849-59.146 10.14-87.66 1.952-5.993 4.687-11.743 7.266-17.514 1.037-2.32 1.87-4.865 5.379-5.158 2.535-.211 1.628-2.937 1.643-4.559.123-13.665.96-27.395-.07-40.98-1.32-17.386 5.189-29.918 18.874-40.25 17.153-12.949 35.735-23.19 55.108-32.192 33.537-15.584 69.222-24.657 104.68-34.403 33.024-9.077 65.26-20.04 94.222-38.937 1.116-.728 2.394-1.314 3.286-2.26 5.658-6.003 12.263-5.503 19.341-3.244 5.644 1.8 11.381 3.287 16.938 6.416-.72.93-.994 1.592-1.485 1.87-25.504 14.418-50.377 30.026-77.846 40.714-23.97 9.327-48.734 15.746-73.832 21.148-33.59 7.23-66.797 15.74-96.916 33.144-8.8 5.085-17.596 10.27-24.123 18.357-3.108 3.85-5.335 7.963-2.752 13.33 5.598-1.605 10.369-4.596 16.28-5.178.387-.033.367-.052.367-.052z"/><path d="M509.538 440.136c10.077 1.097 19.494 2.94 28.44 6.817 22.129 9.59 31.329 34.09 19.826 53.675-6.846 11.657-18.35 16.147-30.95 17.574-21.71 2.46-43.552.62-65.328 1.153-4.49.11-4.71-2.666-4.713-5.852-.008-12.813.007-25.627.001-38.441-.004-10.152.127-20.307-.114-30.453-.099-4.162 1.514-5.613 5.503-5.62 15.638-.025 31.268.134 47.335 1.147zM584.987 279.057c-22.163 10.847-43.973 21.57-67.63 27.833-17.724 4.692-35.708 7.703-53.955 9.552-35.39 3.587-70.82 7.12-104.999 17.848-5.033 1.58-9.925 3.61-15.445 5.638.659-2.575 2.61-2.979 3.949-3.92 23.389-16.437 50.03-25.304 77.092-33.287 25.212-7.438 51.09-12.132 76.451-18.961 29.255-7.877 56.899-19.533 83.419-34.08 13.993-7.675 27.892-15.651 43.626-19.486 3.969-.968 7.834-1.03 11.8.166 11.295 3.404 21.67 8.428 30.538 16.37 2.986 2.674 2.94 4.504-.878 6.107-3.067 1.287-6.114 2.655-9.056 4.203-3.309 1.74-6.08 3.563-9.096-.988-1.557-2.35-5.016-1.807-7.93-.962-20.064 5.82-39.177 13.916-57.886 23.967z"/><path d="M615.278 281.322c-17.646 9.77-35.176 18.902-54.651 23.933 16.699-11.078 33.306-22.217 49.501-34.395 2.37 4.172-2.687 5.23-1.904 8.442 14.365-4.215 25.326-15.99 40.656-17.653-10.308 7.9-22.383 12.692-33.602 19.673zM715.037 306.382c4.077-.147 7.802-1.108 12.636-.126-4.408 2.726-8.13 4.114-12.285 3.738-3.448-.312-3.293-1.743-.351-3.612zM706.127 378.004c3.52.129 6.339-3.07 9.745-.58-5.952.804-10.868 5.584-18.367 4.314 2.785-2.683 5.677-2.82 8.622-3.734zM350.991 343.998c4.052-2.304 7.554-3.28 11.815-3.022-3.114 4.454-7.414 2.413-11.39 2.987-.45.006-.43.025-.425.035z"/></svg>